# xmcd CD database file generated by Grip 2.96
# 
# Track frame offsets:
#       150
#       42969
#       65642
#       81916
#       107613
#       126192
#       154462
#       173499
#       222369
#       242296
# 
# Disc length: 3603 seconds
# 
# Revision: 0
# Processed by: cddbd v1.4PL0 Copyright (c) Steve Scherf et al.
# Submitted via: Grip 2.96
# 
DISCID=830e110a
DTITLE=Walter Arvin - Revival
DYEAR=1900
DGENRE=
TTITLE0=Close to God Medley
TTITLE1=Jestus Is In Your House
TTITLE2=Forgive
TTITLE3=Praise Him
TTITLE4=The Champion of Love
TTITLE5=Gracious Mi Senor
TTITLE6=We Need Revival
TTITLE7=The High Place I will make
TTITLE8=Psalm 91:2
TTITLE9=Bowed On My Knees/Cried Holy
EXTD=
EXTT0=
EXTT1=
EXTT2=
EXTT3=
EXTT4=
EXTT5=
EXTT6=
EXTT7=
EXTT8=
EXTT9=
PLAYORDER=
